<svg width="24" height="24" viewBox="0 0 24 24" fill="none" xmlns="http://www.w3.org/2000/svg">
<path d="M21 12.0002C21 12.1991 20.921 12.3899 20.7803 12.5305C20.6397 12.6712 20.4489 12.7502 20.25 12.7502H5.56029L11.0306 18.2196C11.1003 18.2892 11.1556 18.372 11.1933 18.463C11.231 18.5541 11.2504 18.6516 11.2504 18.7502C11.2504 18.8487 11.231 18.9463 11.1933 19.0374C11.1556 19.1284 11.1003 19.2111 11.0306 19.2808C10.9609 19.3505 10.8782 19.4058 10.7872 19.4435C10.6961 19.4812 10.5985 19.5006 10.5 19.5006C10.4014 19.5006 10.3039 19.4812 10.2128 19.4435C10.1218 19.4058 10.039 19.3505 9.96935 19.2808L3.21935 12.5308C3.14962 12.4612 3.0943 12.3784 3.05656 12.2874C3.01882 12.1963 2.99939 12.0987 2.99939 12.0002C2.99939 11.9016 3.01882 11.804 3.05656 11.713C3.0943 11.6219 3.14962 11.5392 3.21935 11.4696L9.96935 4.71956C10.1101 4.57883 10.301 4.49977 10.5 4.49977C10.699 4.49977 10.8899 4.57883 11.0306 4.71956C11.1713 4.86029 11.2504 5.05116 11.2504 5.25018C11.2504 5.44921 11.1713 5.64008 11.0306 5.78081L5.56029 11.2502H20.25C20.4489 11.2502 20.6397 11.3292 20.7803 11.4699C20.921 11.6105 21 11.8013 21 12.0002Z" fill="white"/>
</svg>
