<svg width="145" height="40" viewBox="0 0 145 40" fill="none" xmlns="http://www.w3.org/2000/svg">
<g clip-path="url(#clip0_0_95)">
<path d="M23.3322 30.0336C23.3322 32.7379 20.3626 33.5511 16.3221 33.5511C13.4415 33.5511 11.2995 33.0622 9.84351 32.4947C9.7859 31.9008 9.72567 31.1425 9.72567 30.222V26.02C13.2478 26.02 23.3427 25.0875 23.3427 30.0336M13.2006 17.1009C18.1761 17.1009 21.6982 17.8306 21.6982 21.3219C21.6982 25.5382 12.7397 24.6606 9.72567 24.6606V20.4539C9.71681 19.422 9.79648 18.391 9.96397 17.3704C11.0322 17.1953 12.1152 17.1051 13.2006 17.1009ZM20.4805 24.8371C24.4085 24.2982 27.7891 23.0247 27.7891 20.1033C27.7891 17.3441 23.1253 15.856 16.1126 15.856H0V16.1112C0.448206 16.1231 0.889262 16.2166 1.29717 16.3861C1.70509 16.5557 2.0716 16.7979 2.37512 17.0985C3.34926 17.9952 3.18952 19.1923 3.18952 20.4372L3.10048 30.2315C3.10048 31.6004 3.30474 32.8548 2.14468 33.7848C1.56121 34.2805 0.797752 34.5632 0 34.579V34.8174C5.76103 34.796 11.5221 34.8389 17.2831 34.7888C24.7384 34.8413 30.324 32.5424 30.324 29.3229C30.3449 27.1647 28.0562 25.1352 20.4805 24.8371Z" fill="url(#paint0_linear_0_95)"/>
<path d="M78.9229 21.0721C78.9229 25.0809 83.6522 26.2256 91.7962 27.8902C98.1726 29.116 100.927 29.7432 100.927 31.7059C100.927 33.0962 98.623 34.2981 94.9386 34.2981C89.1304 34.2981 82.3062 31.7059 79.4309 26.6668L77.5115 32.252C81.9422 34.6249 87.6928 35.7958 93.3203 35.7958C99.6679 35.7958 107.152 33.5612 107.152 29.3903C107.152 25.0809 100.325 24.263 93.3203 22.8464C88.591 21.945 84.6787 21.1771 84.6787 18.9997C84.6787 17.9099 85.755 16.355 90.2172 16.1929C92.7625 16.1929 99.3484 17.0108 104.29 22.8989L105.966 17.5546C101.294 15.7564 96.7429 14.8836 91.2358 14.8836C83.0918 14.8836 78.9282 18.1555 78.9282 21.0841" fill="url(#paint1_linear_0_95)"/>
<path d="M116.766 21.0721C116.766 25.0809 121.506 26.2327 129.642 27.9021C136.018 29.1279 138.773 29.7551 138.773 31.7177C138.773 33.1081 136.469 34.31 132.784 34.31C126.976 34.31 120.149 31.7177 117.277 26.6787L115.36 32.2686C119.791 34.6415 125.538 35.8124 131.169 35.8124C137.516 35.8124 145 33.5779 145 29.4069C145 25.0976 138.173 24.2796 131.169 22.863C126.437 21.9616 122.527 21.1937 122.527 19.0164C122.527 17.9265 123.603 16.3716 128.065 16.2095C130.611 16.2095 137.197 17.0275 142.135 22.9155L143.814 17.5712C139.142 15.7731 134.591 14.9002 129.084 14.9002C120.94 14.9002 116.776 18.1722 116.776 21.1007" fill="url(#paint2_linear_0_95)"/>
<path fill-rule="evenodd" clip-rule="evenodd" d="M49.8773 20.3565C49.904 19.7924 50.0396 19.237 50.278 18.7158C46.9445 21.5441 47.1042 23.44 48.5575 25.0259C49.3903 25.9369 50.6525 26.762 51.9225 27.5991C53.6901 28.7581 55.4917 29.9409 56.3376 31.4481C56.3954 30.5818 56.3471 29.7124 56.1935 28.8559C56.0207 27.8638 55.7196 26.9218 55.2718 26.4711L53.5408 24.692L55.5493 26.2111C56.7579 27.164 57.7285 28.3414 58.3958 29.6643C59.254 31.2903 59.7218 33.0643 59.768 34.8679C59.7916 36.5969 59.3412 38.2066 58.3173 39.3179C58.0846 39.5717 57.8211 39.8005 57.5317 40C58.8798 39.7784 60.1163 39.1741 61.0642 38.2734C62.3159 37.081 63.0282 35.4403 63.3006 33.7232L63.3739 33.2653L63.6619 33.6469C63.8138 33.8472 63.8452 34.4983 63.7902 35.2876C63.7407 35.9533 63.6489 36.6158 63.5153 37.2718C65.0854 36.0939 66.4205 34.678 67.4616 33.0865C68.1455 32.046 68.6881 30.9337 69.0773 29.774C68.8876 30.0522 68.6786 30.319 68.4514 30.5729C67.7619 31.3168 66.9698 31.9765 66.0947 32.5356L65.7909 32.7407L65.7778 32.3949C65.7722 31.6148 65.6845 30.837 65.5159 30.0721C65.3858 29.5014 65.136 28.9588 64.7801 28.4743C64.6274 28.7433 64.4315 28.9901 64.1988 29.2064C63.8628 29.5337 63.4563 29.7943 63.0047 29.9719L62.7978 30.0459L62.7402 29.8479C62.554 29.157 62.232 28.5026 61.7896 27.9163C61.3892 27.4049 60.8639 26.9853 60.2551 26.6905L59.9932 26.5641L60.221 26.39C60.3283 26.2971 60.4232 26.193 60.5038 26.08C60.5811 25.9434 60.6887 25.8231 60.8199 25.7266C60.9512 25.6301 61.103 25.5596 61.2659 25.5195C61.6901 25.448 62.0069 25.6245 62.3343 25.8081C62.6051 26.0036 62.9451 26.102 63.2901 26.0847C63.6562 26.0093 64.0088 25.8872 64.3375 25.7223C64.8486 25.4872 65.3412 25.2203 65.8118 24.9234C66.2359 24.656 66.7167 24.4724 67.2233 24.3844C67.6617 24.3014 68.1152 24.312 68.5483 24.4154C68.9997 24.5268 69.3931 24.7803 69.6586 25.1308C69.7184 25.207 69.7726 25.2867 69.821 25.3693C69.8079 24.6038 69.3339 23.7596 68.8835 22.9607C68.5012 22.281 68.1372 21.6323 68.0639 21.0528C68.0488 20.687 68.1928 20.3305 68.4645 20.0608C68.3938 20.0608 68.3231 20.0608 68.2524 20.0608C68.0867 20.0577 67.9214 20.045 67.7575 20.0226C67.6004 20.0035 67.4406 19.9749 67.2809 19.9415C67.0321 19.8915 66.7572 19.8199 66.4717 19.7436C65.6652 19.5337 64.7565 19.2929 64.06 19.4574C64.5339 20.0989 65.2515 20.3469 65.893 20.5663C66.5346 20.7857 67.0583 20.9646 67.3359 21.4416V21.4678C67.4484 21.767 67.4539 22.0909 67.3516 22.3931C67.2321 22.738 67.032 23.0553 66.765 23.3232C66.3527 23.778 65.8586 24.1659 65.3038 24.4702C64.857 24.7065 64.3595 24.8521 63.8452 24.8971C62.9076 24.9467 61.9677 24.8442 61.0695 24.5942C60.2228 24.3939 59.431 24.0358 58.7441 23.5426C58.3736 23.2847 58.1193 22.9123 58.0292 22.4956C57.9876 22.088 58.0786 21.6783 58.2911 21.3176C58.4083 21.0877 58.5513 20.8695 58.7179 20.6665C58.7991 20.5663 58.8881 20.4662 58.9798 20.366C57.7182 20.3709 56.4687 20.5901 55.2953 21.0123C54.1652 21.4326 53.1731 22.111 52.4148 22.9821L52.352 23.0537H52.2525C51.7018 23.0542 51.1669 22.8863 50.7336 22.5767C50.3969 22.318 50.1465 21.9784 50.0109 21.5966C49.87 21.1996 49.8088 20.7828 49.8302 20.366M57.5788 13.3023C60.2943 13.5622 62.9392 14.2848 64.8587 15.3222C62.9306 13.5581 60.5177 12.298 57.8721 11.6735C54.4951 10.8709 50.9284 11.0375 47.6593 12.1504H47.6384L47.023 12.2315L47.4394 11.8476C48.7775 10.6146 51.0584 9.83005 53.643 9.59872C56.205 9.37443 58.7895 9.68433 61.2004 10.5049L63.3713 2.9714L59.5349 5.11771V5.18448C59.5349 5.24887 59.5349 5.31326 59.5349 5.37527C59.5344 5.71481 59.4561 6.05051 59.305 6.36094C59.154 6.67137 58.9335 6.9497 58.6577 7.17816C58.0676 7.65606 57.3053 7.92004 56.5156 7.92004C55.7259 7.92004 54.9637 7.65606 54.3736 7.17816C54.0932 6.95143 53.8684 6.67353 53.7136 6.36252C53.5589 6.0515 53.4777 5.71433 53.4754 5.37288C53.4763 4.98084 53.5833 4.59504 53.787 4.24965C53.9445 3.97951 54.1538 3.73721 54.405 3.53421L51.3045 -3.8147e-05L48.7801 3.64868C49.139 3.87137 49.4402 4.16274 49.6626 4.50244C49.9123 4.88313 50.0444 5.31818 50.0449 5.7616C50.0428 6.11499 49.9592 6.46403 49.7995 6.78611C49.6398 7.10819 49.4076 7.39613 49.1179 7.63127C48.5072 8.12576 47.7184 8.39891 46.9012 8.39891C46.084 8.39891 45.2953 8.12576 44.6846 7.63127C44.3945 7.39625 44.1619 7.10839 44.0018 6.78632C43.8416 6.46425 43.7575 6.11514 43.7549 5.7616V5.60421L39.3975 3.99925L44.2734 13.7769L44.1399 13.8627C43.5051 14.2745 42.9087 14.7331 42.3566 15.234C42.0156 15.5457 41.6931 15.8736 41.3903 16.2165C41.7398 16.0908 42.0997 15.9903 42.4666 15.916C43.1143 15.7803 43.7813 15.7369 44.4436 15.7872L45.7739 15.9065L44.4646 16.145C44.1266 16.2092 43.7941 16.2953 43.4695 16.4025C41.1127 17.1704 39.4577 19.0091 38.4941 21.0934C37.5304 23.1777 37.2659 25.4313 37.622 27.1937C37.7234 26.7276 37.8635 26.2692 38.041 25.8224C38.3593 24.9723 38.8118 24.1689 39.3844 23.4376L40.589 22.0616L39.7327 23.6236C39.248 24.514 38.9877 25.4917 38.9707 26.4854C38.9474 27.7327 39.2765 28.9645 39.9265 30.0626C40.5009 31.078 41.4016 31.9099 42.5085 32.4473C42.9052 32.6303 43.3297 32.7581 43.768 32.8265C43.4993 32.5896 43.2817 32.3089 43.1265 31.999C42.8975 31.523 42.8344 30.9944 42.9458 30.4847L43.0322 30.053L43.2941 30.4131C44.0351 31.3933 45.4413 31.6938 46.9078 32.0062C49.0551 32.464 51.3228 32.9482 52.0587 35.55L52.2237 36.1342L51.7313 35.7312C50.1602 34.441 48.1935 34.4172 46.1903 34.3909C43.6868 34.3623 41.1232 34.3289 39.0702 31.968C40.9608 36.387 45.9232 37.2718 49.7883 37.961C52.3153 38.4117 54.3919 38.7837 54.9575 40C57.1153 34.1763 53.0904 31.9132 49.3877 29.8312C48.4999 29.3304 47.6279 28.8416 46.8607 28.3145C44.0666 26.4067 42.6237 24.0505 46.4626 19.2094C46.1772 19.2714 45.7975 19.3787 45.3916 19.5027C44.5494 19.7597 43.7225 20.0567 42.9143 20.3923L42.3906 20.6307L42.6525 20.1395C43.2626 19.0067 44.7998 17.8286 46.5202 17.0774C47.806 16.5146 49.1991 16.1879 50.3932 16.2904L48.3742 14.7546L48.6152 14.6235C50.9562 13.3381 54.3474 12.978 57.6259 13.2928L57.5788 13.3023ZM56.2485 16.486C55.7926 16.5717 55.3306 16.6275 54.8659 16.6529C55.5153 17.6855 57.0865 17.7881 58.7074 17.8859C59.3591 17.9181 60.0085 17.981 60.6531 18.0742C60.4222 17.8852 60.2174 17.6714 60.0429 17.4375C59.8371 17.1578 59.5844 16.9091 59.294 16.7006C58.4691 16.1211 57.3274 16.3071 56.2485 16.486Z" fill="url(#paint3_linear_0_95)"/>
</g>
<defs>
<linearGradient id="paint0_linear_0_95" x1="15.1621" y1="15.856" x2="15.1621" y2="34.8174" gradientUnits="userSpaceOnUse">
<stop offset="0.03" stop-color="#FAC76C"/>
<stop offset="0.505" stop-color="#DDAA69"/>
<stop offset="1" stop-color="#825220"/>
</linearGradient>
<linearGradient id="paint1_linear_0_95" x1="92.3317" y1="14.8836" x2="92.3317" y2="35.7958" gradientUnits="userSpaceOnUse">
<stop offset="0.03" stop-color="#FAC76C"/>
<stop offset="0.505" stop-color="#DDAA69"/>
<stop offset="1" stop-color="#825220"/>
</linearGradient>
<linearGradient id="paint2_linear_0_95" x1="130.18" y1="14.9002" x2="130.18" y2="35.8124" gradientUnits="userSpaceOnUse">
<stop offset="0.03" stop-color="#FAC76C"/>
<stop offset="0.505" stop-color="#DDAA69"/>
<stop offset="1" stop-color="#825220"/>
</linearGradient>
<linearGradient id="paint3_linear_0_95" x1="53.6458" y1="-3.8147e-05" x2="53.6458" y2="40" gradientUnits="userSpaceOnUse">
<stop offset="0.03" stop-color="#FAC76C"/>
<stop offset="0.505" stop-color="#DDAA69"/>
<stop offset="1" stop-color="#825220"/>
</linearGradient>
<clipPath id="clip0_0_95">
<rect width="145" height="40" fill="white"/>
</clipPath>
</defs>
</svg>
