<svg width="306" height="86" viewBox="0 0 306 86" fill="none" xmlns="http://www.w3.org/2000/svg">
<g clip-path="url(#clip0_0_66)">
<path d="M49.239 64.6279C49.239 70.3746 42.9722 72.1027 34.4452 72.1027C28.3663 72.1027 23.8458 71.0638 20.7732 69.8577C20.6516 68.5959 20.5245 66.9844 20.5245 65.0282V56.099C27.9573 56.099 49.2611 54.1175 49.2611 64.6279M27.8579 37.1459C38.3578 37.1459 45.7906 38.6966 45.7906 46.1157C45.7906 55.0753 26.8853 53.2104 20.5245 53.2104V44.2711C20.5058 42.0782 20.674 39.8874 21.0274 37.7186C23.2818 37.3465 25.5673 37.1549 27.8579 37.1459ZM43.2209 53.5854C51.5103 52.4401 58.6447 49.734 58.6447 43.5261C58.6447 37.6628 48.8024 34.5006 34.0031 34.5006H0V35.0428C0.945869 35.0681 1.87665 35.2668 2.73748 35.6271C3.59832 35.9874 4.37179 36.5021 5.01232 37.1408C7.06809 39.0463 6.73098 41.5903 6.73098 44.2356L6.54309 65.0485C6.54309 67.9573 6.97414 70.6229 4.52601 72.5993C3.29469 73.6527 1.68353 74.2534 0 74.2869V74.7936C12.1578 74.748 24.3155 74.8392 36.4733 74.7328C52.2066 74.8443 63.9941 69.9591 63.9941 63.1177C64.0383 58.5315 59.2083 54.2189 43.2209 53.5854Z" fill="white"/>
<path d="M166.555 45.5848C166.555 54.1036 176.535 56.5361 193.722 60.0733C207.178 62.6781 212.992 64.0109 212.992 68.1816C212.992 71.136 208.129 73.6901 200.353 73.6901C188.096 73.6901 173.695 68.1816 167.627 57.4736L163.576 69.3421C172.926 74.3844 185.062 76.8726 196.938 76.8726C210.334 76.8726 226.128 72.1242 226.128 63.2609C226.128 54.1036 211.721 52.3654 196.938 49.3552C186.958 47.4396 178.701 45.8078 178.701 41.181C178.701 38.8651 180.973 35.561 190.389 35.2164C195.761 35.2164 209.66 36.9546 220.088 49.4667L223.624 38.11C213.766 34.289 204.161 32.4342 192.539 32.4342C175.353 32.4342 166.566 39.3871 166.566 45.6102" fill="white"/>
<path d="M246.416 45.5847C246.416 54.1034 256.419 56.5511 273.589 60.0985C287.045 62.7033 292.859 64.0361 292.859 68.2068C292.859 71.1612 287.996 73.7153 280.221 73.7153C267.963 73.7153 253.556 68.2068 247.494 57.4988L243.449 69.3774C252.799 74.4197 264.929 76.9079 276.811 76.9079C290.206 76.9079 306.001 72.1595 306.001 63.2962C306.001 54.1389 291.594 52.4007 276.811 49.3905C266.825 47.4749 258.574 45.8431 258.574 41.2164C258.574 38.9004 260.845 35.5963 270.262 35.2517C275.634 35.2517 289.532 36.9899 299.955 49.502L303.497 38.1453C293.638 34.3243 284.034 32.4696 272.412 32.4696C255.225 32.4696 246.438 39.4224 246.438 45.6455" fill="white"/>
<path fill-rule="evenodd" clip-rule="evenodd" d="M105.258 44.0641C105.315 42.8654 105.601 41.6851 106.104 40.5776C99.069 46.5878 99.4061 50.6166 102.473 53.9866C104.231 55.9225 106.894 57.6759 109.574 59.4546C113.305 61.9175 117.107 64.4311 118.892 67.6338C119.014 65.793 118.912 63.9454 118.588 62.1253C118.223 60.0171 117.588 58.0154 116.643 57.0576L112.99 53.2771L117.228 56.5052C119.779 58.5301 121.827 61.0321 123.235 63.8432C125.046 67.2985 126.034 71.0682 126.131 74.9009C126.181 78.5749 125.23 81.9956 123.07 84.3571C122.579 84.8963 122.022 85.3826 121.412 85.8065C124.257 85.3358 126.866 84.0514 128.867 82.1375C131.508 79.6037 133.011 76.1171 133.586 72.4684L133.741 71.4954L134.349 72.3062C134.669 72.7319 134.735 74.1154 134.619 75.7928C134.515 77.2073 134.321 78.6151 134.039 80.0091C137.353 77.5061 140.17 74.4973 142.367 71.1153C143.811 68.9044 144.956 66.5407 145.777 64.0763C145.377 64.6675 144.935 65.2345 144.456 65.774C143.001 67.3548 141.329 68.7566 139.483 69.9447L138.841 70.3805L138.814 69.6457C138.802 67.988 138.617 66.3351 138.261 64.7098C137.987 63.4969 137.459 62.3441 136.708 61.3145C136.386 61.8862 135.973 62.4106 135.482 62.8702C134.772 63.5656 133.915 64.1194 132.962 64.4969L132.525 64.654L132.403 64.2334C132.011 62.7653 131.331 61.3745 130.397 60.1286C129.552 59.0421 128.444 58.1504 127.159 57.5238L126.606 57.2552L127.087 56.8853C127.313 56.6878 127.514 56.4667 127.684 56.2265C127.847 55.9364 128.074 55.6806 128.351 55.4755C128.628 55.2705 128.948 55.1206 129.292 55.0356C130.187 54.8836 130.856 55.2586 131.547 55.6488C132.118 56.0642 132.836 56.2733 133.564 56.2366C134.337 56.0762 135.081 55.8169 135.774 55.4664C136.853 54.9669 137.893 54.3997 138.886 53.7687C139.781 53.2005 140.795 52.8103 141.864 52.6234C142.789 52.447 143.747 52.4696 144.661 52.6893C145.613 52.926 146.443 53.4646 147.004 54.2096C147.13 54.3715 147.244 54.5408 147.346 54.7163C147.319 53.0896 146.319 51.2957 145.368 49.598C144.561 48.1537 143.793 46.7753 143.638 45.5439C143.606 44.7665 143.91 44.0089 144.484 43.4357C144.335 43.4357 144.185 43.4357 144.036 43.4357C143.687 43.4293 143.338 43.4022 142.992 43.3546C142.66 43.3141 142.323 43.2533 141.986 43.1823C141.461 43.0759 140.881 42.9239 140.278 42.7617C138.576 42.3158 136.659 41.8039 135.189 42.1536C136.189 43.5168 137.703 44.0438 139.057 44.5101C140.411 44.9763 141.516 45.3564 142.102 46.3699V46.4256C142.34 47.0614 142.351 47.7498 142.135 48.3919C141.883 49.1249 141.461 49.7991 140.897 50.3683C140.027 51.3349 138.984 52.1591 137.814 52.8058C136.871 53.3078 135.821 53.6172 134.735 53.7129C132.757 53.8184 130.773 53.6004 128.878 53.0694C127.091 52.6437 125.42 51.8827 123.97 50.8345C123.188 50.2865 122.652 49.4953 122.462 48.6098C122.374 47.7437 122.566 46.873 123.014 46.1064C123.262 45.6179 123.563 45.1543 123.915 44.7229C124.086 44.5101 124.274 44.2972 124.468 44.0844C121.805 44.0947 119.168 44.5604 116.692 45.4577C114.307 46.3507 112.214 47.7924 110.613 49.6436L110.481 49.7956H110.271C109.109 49.7968 107.98 49.4399 107.066 48.7821C106.355 48.2322 105.826 47.5107 105.54 46.6993C105.243 45.8557 105.114 44.9699 105.159 44.0844M121.511 29.0739C127.242 29.6263 132.823 31.1618 136.874 33.3663C132.805 29.6175 127.713 26.9397 122.13 25.6127C115.004 23.9072 107.477 24.2612 100.578 26.6263H100.533L99.2348 26.7986L100.113 25.9827C102.937 23.3627 107.751 21.6954 113.205 21.2039C118.612 20.7272 124.066 21.3858 129.154 23.1296L133.735 7.1208L125.639 11.6817V11.8236C125.639 11.9604 125.639 12.0973 125.639 12.229C125.638 12.9505 125.473 13.6639 125.154 14.3236C124.835 14.9832 124.37 15.5747 123.788 16.0602C122.543 17.0757 120.934 17.6367 119.267 17.6367C117.601 17.6367 115.992 17.0757 114.747 16.0602C114.155 15.5784 113.681 14.9878 113.354 14.3269C113.028 13.666 112.856 12.9495 112.851 12.2239C112.853 11.3908 113.079 10.571 113.509 9.83707C113.841 9.26302 114.283 8.74814 114.813 8.31677L108.27 0.806488L102.943 8.56002C103.7 9.03322 104.336 9.65238 104.805 10.3742C105.332 11.1832 105.611 12.1077 105.612 13.05C105.608 13.8009 105.431 14.5426 105.094 15.2271C104.757 15.9115 104.267 16.5233 103.656 17.023C102.367 18.0738 100.702 18.6543 98.9778 18.6543C97.2533 18.6543 95.5887 18.0738 94.2998 17.023C93.6878 16.5236 93.1969 15.9119 92.859 15.2275C92.521 14.5431 92.3435 13.8013 92.338 13.05V12.7155L83.1423 9.30497L93.4322 30.0824L93.1504 30.2648C91.8109 31.1398 90.5521 32.1144 89.387 33.1788C88.6674 33.8411 87.9868 34.5381 87.3478 35.2666C88.0855 34.9995 88.8449 34.786 89.6191 34.6281C90.9861 34.3397 92.3936 34.2474 93.7914 34.3545L96.5988 34.6078L93.8356 35.1146C93.1224 35.2512 92.4206 35.4341 91.7357 35.6619C86.762 37.2937 83.2694 41.2009 81.2358 45.63C79.2021 50.0592 78.6439 54.8481 79.3955 58.5931C79.6094 57.6027 79.905 56.6286 80.2797 55.6792C80.9513 53.8727 81.9063 52.1655 83.1147 50.6115L85.6568 47.6875L83.8497 51.0068C82.8268 52.8989 82.2774 54.9765 82.2415 57.088C82.1924 59.7385 82.887 62.3561 84.2586 64.6895C85.4709 66.8474 87.3717 68.6152 89.7075 69.7572C90.5447 70.146 91.4407 70.4176 92.3656 70.5629C91.7985 70.0595 91.3392 69.4631 91.0117 68.8045C90.5286 67.7928 90.3955 66.6697 90.6304 65.5865L90.8128 64.6692L91.3654 65.4345C92.9293 67.5173 95.8969 68.1558 98.9916 68.8197C103.523 69.7927 108.309 70.8214 109.862 76.3502L110.21 77.5918L109.171 76.7354C105.855 73.9938 101.705 73.9431 97.4774 73.8873C92.1943 73.8265 86.7841 73.7556 82.4515 68.7386C86.4415 78.129 96.9138 80.0091 105.071 81.4736C110.403 82.4314 114.786 83.222 115.979 85.8065C120.533 73.4312 112.039 68.622 104.225 64.198C102.352 63.1337 100.511 62.0949 98.8922 60.9749C92.9956 56.9208 89.9507 51.9139 98.0522 41.6266C97.4498 41.7583 96.6485 41.9864 95.7919 42.2499C94.0146 42.796 92.2696 43.427 90.5641 44.1401L89.4588 44.6469L90.0115 43.6029C91.2991 41.1958 94.543 38.6924 98.1737 37.0961C100.887 35.9001 103.827 35.2058 106.347 35.4237L102.086 32.1602L102.595 31.8814C107.535 29.15 114.692 28.3847 121.611 29.0537L121.511 29.0739ZM118.704 35.8393C117.742 36.0215 116.767 36.1401 115.786 36.194C117.156 38.3883 120.472 38.6062 123.893 38.814C125.268 38.8826 126.639 39.0162 127.999 39.2143C127.512 38.8126 127.079 38.3583 126.711 37.8613C126.277 37.2668 125.744 36.7384 125.131 36.2954C123.39 35.0639 120.981 35.4592 118.704 35.8393Z" fill="white"/>
</g>
<defs>
<clipPath id="clip0_0_66">
<rect width="306" height="85" fill="white" transform="translate(0 0.806488)"/>
</clipPath>
</defs>
</svg>
